<svg xmlns="http://www.w3.org/2000/svg" width="19" height="16" viewBox="0 0 19 16">
  <metadata><?xpacket begin="﻿" id="W5M0MpCehiHzreSzNTczkc9d"?>
<x:xmpmeta xmlns:x="adobe:ns:meta/" x:xmptk="Adobe XMP Core 5.6-c140 79.160451, 2017/05/06-01:08:21        ">
   <rdf:RDF xmlns:rdf="http://www.w3.org/1999/02/22-rdf-syntax-ns#">
      <rdf:Description rdf:about=""/>
   </rdf:RDF>
</x:xmpmeta>               
<?xpacket end="w"?></metadata>
<defs>
    <style>
      .cls-1 {
        fill-rule: evenodd;
        opacity: 0.8;
      }
    </style>
  </defs>
  <path id="Forma_1_копия_2" data-name="Forma 1 копия 2" class="cls-1" d="M359.476,1957.29a7.475,7.475,0,0,1-2.477.98,3.842,3.842,0,0,0-2.844-1.27,3.972,3.972,0,0,0-3.9,4.04,4.294,4.294,0,0,0,.1.92,10.962,10.962,0,0,1-8.034-4.22,4.117,4.117,0,0,0-.527,2.03,4.072,4.072,0,0,0,1.734,3.36,3.684,3.684,0,0,1-1.765-.51v0.05a4.023,4.023,0,0,0,3.126,3.97,3.864,3.864,0,0,1-1.027.14,3.565,3.565,0,0,1-.734-0.08,3.929,3.929,0,0,0,3.64,2.81,7.667,7.667,0,0,1-4.84,1.73,7.145,7.145,0,0,1-.93-0.06,10.725,10.725,0,0,0,5.975,1.82c7.169,0,11.09-6.16,11.09-11.5l-0.013-.52a8.051,8.051,0,0,0,1.948-2.09,7.688,7.688,0,0,1-2.238.64A4.056,4.056,0,0,0,359.476,1957.29Z" transform="translate(-341 -1957)"/>
</svg>
